<?xml version="1.0" standalone="no"?>
<!DOCTYPE svg PUBLIC "-//W3C//DTD SVG 20010904//EN"
 "http://www.w3.org/TR/2001/REC-SVG-20010904/DTD/svg10.dtd">
<svg version="1.0" xmlns="http://www.w3.org/2000/svg"
 width="512.000000pt" height="512.000000pt" viewBox="0 0 512.000000 512.000000"
 preserveAspectRatio="xMidYMid meet">

<g transform="translate(0.000000,512.000000) scale(0.100000,-0.100000)"
fill="#000000" stroke="none">
<path d="M0 2560 l0 -2560 2560 0 2560 0 0 2560 0 2560 -2560 0 -2560 0 0
-2560z m1754 797 c14 -9 37 -38 52 -63 24 -41 139 -336 316 -813 71 -190 57
-191 129 9 22 63 54 149 69 190 16 41 52 138 80 215 139 380 158 419 218 460
70 47 161 23 210 -57 32 -52 46 -114 137 -588 47 -245 103 -538 125 -651 48
-244 47 -243 18 -234 -83 25 -196 115 -264 211 -90 126 -112 203 -184 634 -7
41 -15 68 -18 60 -39 -125 -290 -828 -309 -865 -48 -94 -137 -128 -230 -86
-64 29 -77 57 -209 431 -31 85 -68 191 -84 235 -16 44 -46 130 -67 190 -20 61
-39 103 -40 95 -22 -141 -97 -540 -109 -581 -45 -151 -160 -296 -267 -337 -57
-21 -107 -29 -107 -16 0 4 22 120 50 258 27 138 88 448 135 690 47 241 93 459
102 485 19 56 55 106 97 132 37 24 110 21 150 -4z m2024 -7 l123 0 -103 -200
-103 -200 -211 0 c-167 0 -220 -3 -258 -16 -50 -17 -151 -101 -161 -136 -15
-44 -23 -12 -89 342 -9 47 -16 90 -16 96 0 17 156 92 215 103 72 15 100 16
300 14 99 -1 235 -2 303 -3z m92 -1070 l0 -490 -318 0 -318 0 -18 98 c-10 53
-29 152 -42 219 -13 68 -24 125 -24 127 0 3 21 -4 48 -16 39 -18 71 -22 200
-26 l152 -4 0 111 0 111 -57 0 c-32 1 -118 1 -190 1 -73 0 -133 4 -133 8 0 8
145 278 177 329 13 22 15 22 268 22 l255 0 0 -490z m1076 -1911 l28 -29 -25
-27 c-33 -38 -49 -68 -50 -95 0 -15 -7 -4 -20 29 -11 29 -32 61 -46 72 l-25
20 31 31 c17 17 36 49 43 71 l12 41 12 -42 c7 -23 25 -55 40 -71z"/>
</g>
</svg>
