<?xml version="1.0" standalone="no"?>
<!DOCTYPE svg PUBLIC "-//W3C//DTD SVG 20010904//EN"
 "http://www.w3.org/TR/2001/REC-SVG-20010904/DTD/svg10.dtd">
<svg version="1.0" xmlns="http://www.w3.org/2000/svg"
 width="192.000000pt" height="192.000000pt" viewBox="0 0 192.000000 192.000000"
 preserveAspectRatio="xMidYMid meet">

<g transform="translate(0.000000,192.000000) scale(0.100000,-0.100000)"
fill="#000000" stroke="none">
<path d="M0 960 l0 -960 960 0 960 0 0 960 0 960 -960 0 -960 0 0 -960z m663
288 c12 -13 51 -101 87 -195 36 -95 67 -173 70 -173 3 0 34 79 69 175 62 168
89 215 122 215 25 0 57 -42 68 -90 25 -105 92 -472 89 -486 -2 -12 -12 -9 -45
15 -61 44 -92 104 -113 218 -15 84 -19 94 -27 73 -5 -14 -32 -88 -58 -165 -51
-146 -69 -175 -109 -175 -44 0 -57 26 -155 309 -21 62 -23 60 -45 -69 -17 -99
-29 -134 -61 -176 -23 -30 -80 -62 -91 -51 -9 8 95 526 111 558 23 44 55 50
88 17z m797 7 c0 -18 -72 -144 -85 -149 -9 -3 -52 -6 -95 -6 -70 0 -82 -3
-109 -26 l-30 -25 -5 23 c-17 75 -25 143 -18 150 24 24 95 37 215 37 70 1 127
-1 127 -4z m-10 -400 l0 -185 -118 0 -119 0 -13 73 c-7 39 -15 78 -17 85 -4 9
1 10 22 2 14 -5 49 -10 76 -10 l49 0 0 45 0 44 -70 3 -69 3 35 63 35 62 95 0
94 0 0 -185z m397 -740 c-10 -11 -13 -10 -20 1 -12 21 2 38 18 24 11 -9 12
-15 2 -25z"/>
</g>
</svg>
